<?xml version="1.0" encoding="iso-8859-1"?>
<!-- Generator: Adobe Illustrator 29.7.1, SVG Export Plug-In . SVG Version: 9.03 Build 0)  -->
<svg version="1.1" xmlns="http://www.w3.org/2000/svg" xmlns:xlink="http://www.w3.org/1999/xlink" x="0px" y="0px"
	 viewBox="0 0 410.44 141.54" style="enable-background:new 0 0 410.44 141.54;" xml:space="preserve">
<g id="Layer_2">
</g>
<g id="Layer_1">
	<g>
		<g>
			<g>
				<path style="fill:#000B29;" d="M43.131,70.719c0,14.797,12.038,26.836,26.837,26.836c5.167,0,9.979-1.492,14.078-4.032v-5.265
					c-3.859,3.103-8.752,4.972-14.078,4.972c-12.414,0-22.513-10.098-22.513-22.51s10.1-22.51,22.513-22.51
					c5.326,0,10.218,1.869,14.078,4.972v-5.265c-4.099-2.54-8.911-4.032-14.078-4.032C55.169,43.884,43.131,55.922,43.131,70.719z"
					/>
				<path style="fill:#000B29;" d="M98.096,92.273c-0.525-0.631-0.789-1.788-0.789-3.473V42.928h-4.34v46.03
					c0,2.999,0.632,5.08,1.893,6.237c1.264,1.158,2.948,1.737,5.054,1.737c0.63,0,1.317-0.04,2.052-0.118
					c0.736-0.08,1.448-0.226,2.131-0.436v-3.631c-1.156,0.316-2.315,0.474-3.474,0.474S98.623,92.905,98.096,92.273z"/>
				<path style="fill:#000B29;" d="M137.851,61.048c-2.447-2.079-6.253-3.119-11.411-3.119c-2.473,0-4.803,0.185-6.986,0.553
					c-2.187,0.369-4.092,0.869-5.723,1.499v3.711c1.788-0.63,3.681-1.131,5.684-1.499c1.999-0.367,4.079-0.553,6.237-0.553
					c3.211,0,5.643,0.316,7.305,0.948c1.656,0.632,2.801,1.671,3.433,3.118c0.631,1.449,0.947,3.356,0.947,5.724v3.553h-13.975
					c-5.054,0-8.631,1.04-10.737,3.119c-2.107,2.08-3.157,4.777-3.157,8.093c0,2.474,0.592,4.513,1.777,6.118
					c1.183,1.606,2.76,2.777,4.735,3.513c1.975,0.736,4.147,1.105,6.514,1.105c3.58,0,6.554-0.448,8.922-1.342
					c2.368-0.895,4.422-2.263,6.158-4.106l0.395,4.658h3.554v-24.79C141.522,66.562,140.298,63.127,137.851,61.048z M137.336,87.457
					c-1.631,1.948-3.579,3.409-5.842,4.382c-2.263,0.975-4.894,1.46-7.894,1.46c-3.054,0-5.461-0.538-7.225-1.618
					c-1.764-1.078-2.644-2.907-2.644-5.487c0-2.527,0.711-4.448,2.129-5.764c1.422-1.316,3.974-1.974,7.661-1.974h13.816V87.457z"/>
				<path style="fill:#000B29;" d="M155.89,63.929l-0.475-5.211h-3.788v37.423h4.341V67.403c1.054-0.79,2.382-1.564,3.989-2.329
					c1.604-0.762,3.288-1.46,5.054-2.092c1.761-0.632,3.407-1.132,4.935-1.499v-3.553c-2.423,0.526-4.885,1.316-7.382,2.368
					C160.061,61.351,157.838,62.561,155.89,63.929z"/>
				<polygon style="fill:#000B29;" points="175.944,62.35 181.784,62.35 181.784,96.142 186.127,96.142 186.127,58.719 
					176.416,58.719 				"/>
				<path style="fill:#000B29;" d="M210.998,93.379c-2.581,0-4.437-0.579-5.566-1.737c-1.135-1.157-1.699-2.948-1.699-5.369V62.35
					h10.577l0.24-3.631h-10.817V47.507l-4.343,1.421v9.791h-5.842v3.631h5.842v24.081c0,3.316,0.893,5.896,2.683,7.738
					c1.791,1.843,4.343,2.763,7.662,2.763c2.208,0,4.183-0.316,5.918-0.948V92.51c-0.895,0.316-1.723,0.54-2.487,0.67
					C212.406,93.312,211.68,93.379,210.998,93.379z"/>
				<path style="fill:#000B29;" d="M254.183,58.719l-14.607,32.528l-14.052-32.528h-4.502l16.346,37.187
					c-0.951,2.21-1.846,4.091-2.687,5.645c-0.84,1.552-1.815,2.736-2.92,3.553c-1.107,0.816-2.581,1.224-4.422,1.224
					c-0.791,0-1.567-0.053-2.328-0.158c-0.766-0.106-1.594-0.316-2.487-0.632v3.633c0.84,0.315,1.721,0.538,2.644,0.67
					c0.919,0.131,1.932,0.198,3.038,0.198c2.476,0,4.527-0.659,6.159-1.973c1.631-1.317,3.066-3.106,4.302-5.369
					c1.236-2.264,2.488-4.844,3.751-7.738l16.185-36.239H254.183z"/>
			</g>
			<linearGradient id="SVGID_1_" gradientUnits="userSpaceOnUse" x1="269.0607" y1="77.2603" x2="394.2372" y2="77.2603">
				<stop  offset="0" style="stop-color:#000B29"/>
				<stop  offset="0.0254" style="stop-color:#04102E"/>
				<stop  offset="0.2332" style="stop-color:#1E3853"/>
				<stop  offset="0.3986" style="stop-color:#2F506B"/>
				<stop  offset="0.5" style="stop-color:#355973"/>
				<stop  offset="0.6503" style="stop-color:#6183A0"/>
				<stop  offset="0.8032" style="stop-color:#88A8C8"/>
				<stop  offset="0.9252" style="stop-color:#9FBFE0"/>
				<stop  offset="1" style="stop-color:#A8C7E9"/>
			</linearGradient>
			<path style="fill:url(#SVGID_1_);" d="M281.948,96.708c-2.423,0-4.679-0.175-6.766-0.528c-2.09-0.351-3.896-0.858-5.419-1.523
				v-6.971c1.719,0.703,3.575,1.27,5.565,1.698c1.99,0.431,3.943,0.644,5.857,0.644c2.733,0,4.744-0.253,6.033-0.761
				c1.289-0.507,1.935-1.659,1.935-3.456c0-1.131-0.275-2.03-0.821-2.693c-0.547-0.663-1.494-1.26-2.841-1.787
				c-1.347-0.528-3.25-1.122-5.711-1.786c-3.946-1.093-6.717-2.461-8.318-4.101c-1.602-1.641-2.4-3.905-2.4-6.796
				c0-3.475,1.269-6.15,3.806-8.025c2.54-1.875,6.229-2.812,11.072-2.812c2.265,0,4.373,0.156,6.325,0.469
				c1.952,0.313,3.537,0.682,4.747,1.112v6.971c-3.203-1.21-6.541-1.817-10.017-1.817c-2.461,0-4.393,0.265-5.799,0.792
				c-1.406,0.526-2.11,1.631-2.11,3.309c0,0.976,0.254,1.758,0.763,2.344c0.506,0.585,1.377,1.112,2.607,1.581
				c1.228,0.468,2.958,0.995,5.182,1.581c3.087,0.82,5.469,1.796,7.146,2.929c1.681,1.133,2.841,2.422,3.487,3.867
				c0.643,1.445,0.965,3.066,0.965,4.861c0,3.281-1.248,5.917-3.747,7.909C290.988,95.711,287.138,96.708,281.948,96.708z
				 M300.984,96.122V58.398h17.692c2.967,0,5.398,0.566,7.292,1.698c1.894,1.134,3.309,2.676,4.247,4.628
				c0.938,1.952,1.406,4.178,1.406,6.677c0,2.538-0.538,4.785-1.611,6.737c-1.076,1.952-2.598,3.465-4.568,4.539
				c-1.973,1.074-4.305,1.61-7,1.61h-9.549v11.833H300.984z M308.893,78.021h7.909c2.262,0,3.972-0.595,5.124-1.786
				c1.152-1.191,1.727-2.802,1.727-4.833c0-2.186-0.547-3.855-1.64-5.008c-1.093-1.152-2.733-1.727-4.919-1.727h-8.202V78.021z
				 M327.228,96.122l14.41-37.724h8.669l14.351,37.724h-8.201l-3.572-9.08h-13.883l-3.516,9.08H327.228z M340.173,80.951h11.539
				l-5.799-15.172L340.173,80.951z M378.951,96.708c-2.423,0-4.679-0.175-6.766-0.528c-2.09-0.351-3.896-0.858-5.419-1.523v-6.971
				c1.719,0.703,3.575,1.27,5.565,1.698c1.99,0.431,3.943,0.644,5.857,0.644c2.733,0,4.744-0.253,6.033-0.761
				c1.289-0.507,1.935-1.659,1.935-3.456c0-1.131-0.275-2.03-0.821-2.693c-0.547-0.663-1.494-1.26-2.841-1.787
				c-1.347-0.528-3.25-1.122-5.711-1.786c-3.946-1.093-6.717-2.461-8.318-4.101c-1.602-1.641-2.4-3.905-2.4-6.796
				c0-3.475,1.268-6.15,3.806-8.025c2.54-1.875,6.229-2.812,11.072-2.812c2.265,0,4.373,0.156,6.325,0.469
				c1.952,0.313,3.537,0.682,4.747,1.112v6.971c-3.203-1.21-6.541-1.817-10.017-1.817c-2.461,0-4.393,0.265-5.799,0.792
				c-1.406,0.526-2.11,1.631-2.11,3.309c0,0.976,0.254,1.758,0.763,2.344c0.506,0.585,1.377,1.112,2.607,1.581
				c1.228,0.468,2.958,0.995,5.182,1.581c3.087,0.82,5.469,1.796,7.146,2.929c1.681,1.133,2.841,2.422,3.487,3.867
				c0.643,1.445,0.965,3.066,0.965,4.861c0,3.281-1.248,5.917-3.747,7.909C387.991,95.711,384.142,96.708,378.951,96.708z"/>
			<path style="fill:#A8C7E9;" d="M27.206,16.639c25.242-23.722,68.042-21.622,91.775,3.378
				c7.909,8.017,13.679,18.083,16.368,28.806c-4.306-10.17-10.614-19.261-18.578-26.524C92.642-0.385,54.222-2.292,27.206,16.639
				L27.206,16.639z"/>
			<path style="fill:#A8C7E9;" d="M4.445,49.25c-13.77,49.2,28.336,96.738,78.784,87.513c15.367-2.773,29.828-10.854,40.458-22.832
				c-2.526,3.08-4.931,6.345-7.934,9.042c-8.817,8.418-19.94,14.296-31.901,16.906C31.343,151.543-14.761,99.756,4.445,49.25
				L4.445,49.25z"/>
			<path style="fill:#000B29;" d="M103.718,27.508C63.113-1.681,7.831,33.322,18.492,82.486
				c7.421,33.936,46.497,51.728,77.184,35.535c9.868-4.978,18.1-13.173,23.468-23.041c-4.553,10.304-12.631,19.051-22.515,24.794
				c-32.196,18.628-74.023-0.145-82.102-36.384C3.164,31.712,62.44-6.128,103.718,27.508L103.718,27.508z"/>
			<path style="fill:#A8C7E9;" d="M78.389,30.88c-29.515-4.875-54.686,23.607-45.193,51.854
				c4.079,12.919,15.348,23.255,28.706,26.275c13.324,3.18,28.325-0.931,38.378-11.112c-20.374,25.361-61.076,16.753-70.951-13.901
				C19.21,53.41,46.976,22.477,78.389,30.88L78.389,30.88z"/>
			<polygon style="fill:#000B29;" points="186.127,53.658 186.127,47.507 181.784,48.928 181.784,53.658 			"/>
		</g>
		<g>
			<path style="fill:#000B29;" d="M407.555,61.791c0-0.633-0.174-1.081-0.522-1.341s-0.875-0.391-1.583-0.391h-1.938v5.589h0.894
				v-2.068h1.23l1.062,2.068h0.95l-1.099-2.18C407.22,63.232,407.555,62.673,407.555,61.791z M405.655,62.816h-1.249v-1.994h0.987
				c0.435,0,0.758,0.074,0.969,0.223c0.211,0.149,0.316,0.404,0.316,0.764s-0.081,0.618-0.242,0.773
				C406.276,62.738,406.015,62.816,405.655,62.816z"/>
			<path style="fill:#000B29;" d="M405.401,57.813c-2.783,0-5.04,2.256-5.04,5.04s2.257,5.04,5.04,5.04
				c2.783,0,5.04-2.257,5.04-5.04S408.184,57.813,405.401,57.813z M405.401,66.856c-2.207,0-4.003-1.796-4.003-4.003
				s1.796-4.003,4.003-4.003c2.207,0,4.003,1.796,4.003,4.003S407.608,66.856,405.401,66.856z"/>
		</g>
	</g>
</g>
</svg>
