<?xml version="1.0" encoding="iso-8859-1"?>
<!-- Generator: Adobe Illustrator 29.7.1, SVG Export Plug-In . SVG Version: 9.03 Build 0)  -->
<svg version="1.1" xmlns="http://www.w3.org/2000/svg" xmlns:xlink="http://www.w3.org/1999/xlink" x="0px" y="0px"
	 viewBox="0 0 334.415 96.503" style="enable-background:new 0 0 334.415 96.503;" xml:space="preserve">
<g id="Layer_2">
</g>
<g id="Layer_1">
	<g>
		<g>
			<path style="fill:#000B29;" d="M206.604,91.638c0,2.869-2.997,4.865-8.673,4.865c-4.051,0-7.349-1.039-9.797-2.932l2.105-2.266
				c1.969,1.643,4.51,2.413,7.783,2.413c3.249,0,4.898-0.562,4.898-1.768c0-1.207-1.65-1.539-5.333-1.831
				c-4.577-0.354-8.836-1.268-8.836-4.386c0-3.036,3.572-4.699,8.515-4.699c3.503,0,6.524,0.789,8.56,2.225l-2.013,2.308
				c-1.764-1.227-3.937-1.726-6.546-1.747c-2.174-0.02-4.829,0.333-4.829,1.664c0,1.247,2.288,1.372,5.469,1.601
				C203.012,87.458,206.604,88.435,206.604,91.638z"/>
			<path style="fill:#000B29;" d="M231.074,86.419c0,3.223-2.747,4.928-6.867,4.928h-7.302v4.699h-3.661V81.491h10.963
				C228.327,81.491,231.074,83.237,231.074,86.419z M227.344,86.439c0-1.663-1.373-2.162-3.434-2.162h-7.005v4.324h7.005
				C225.97,88.602,227.344,88.103,227.344,86.439z"/>
			<path style="fill:#000B29;" d="M248.994,92.969h-9.681l-1.717,3.077h-3.913l8.491-14.555h4.007l8.491,14.555h-3.96
				L248.994,92.969z M247.46,90.266l-3.318-5.926l-3.32,5.926H247.46z"/>
			<path style="fill:#000B29;" d="M276.944,91.638c0,2.869-2.997,4.865-8.673,4.865c-4.051,0-7.349-1.039-9.797-2.932l2.105-2.266
				c1.969,1.643,4.51,2.413,7.783,2.413c3.249,0,4.898-0.562,4.898-1.768c0-1.207-1.65-1.539-5.333-1.831
				c-4.577-0.354-8.836-1.268-8.836-4.386c0-3.036,3.572-4.699,8.515-4.699c3.503,0,6.524,0.789,8.56,2.225l-2.013,2.308
				c-1.764-1.227-3.937-1.726-6.546-1.747c-2.174-0.02-4.829,0.333-4.829,1.664c0,1.247,2.288,1.372,5.469,1.601
				C273.352,87.458,276.944,88.435,276.944,91.638z"/>
		</g>
		<linearGradient id="SVGID_1_" gradientUnits="userSpaceOnUse" x1="34.5477" y1="104.6606" x2="293.2009" y2="-32.8678">
			<stop  offset="0" style="stop-color:#A8C7E9"/>
			<stop  offset="0.0301" style="stop-color:#7C9DBC"/>
			<stop  offset="0.0606" style="stop-color:#557894"/>
			<stop  offset="0.085" style="stop-color:#3E617C"/>
			<stop  offset="0.1" style="stop-color:#355973"/>
			<stop  offset="0.1051" style="stop-color:#31546E"/>
			<stop  offset="0.1466" style="stop-color:#172C49"/>
			<stop  offset="0.1797" style="stop-color:#061431"/>
			<stop  offset="0.2" style="stop-color:#000B29"/>
		</linearGradient>
		<path style="fill:url(#SVGID_1_);" d="M33.33,25.834h23.958v34.626h-12.16l-0.754-4.26c-5.079,3.597-10.549,5.421-16.264,5.421
			c-0.01-0.001-0.018-0.001-0.022,0C12.099,61.622,0.024,48.477,0,31.042c0.01-8.517,3.052-16.339,8.562-22.029
			C14.191,3.2,22.095,0,30.819,0c0.016,0,0.035,0,0.051,0c8.432,0.001,16.782,2.987,24.151,8.636l0.303,0.232l-4.007,11.008
			l-0.544-0.338c-6.134-3.811-12.806-5.91-18.783-5.91c-0.014,0-0.028,0-0.043,0c-4.663,0-8.586,1.476-11.351,4.269
			c-2.981,3.011-4.559,7.551-4.565,13.129c0.006,5.682,1.615,10.266,4.653,13.256c2.532,2.492,5.929,3.766,9.856,3.718
			c3.698-0.048,7.822-1.163,11.948-3.228v-6.225H33.33V25.834z M95.354,22.353c4.082,4.1,6.221,10.204,6.189,17.653
			c-0.002,0.63-0.022,1.269-0.063,1.954l-0.014,0.245L72.31,42.205c0.02,0.12,0.041,0.239,0.061,0.357
			c1.006,5.575,4.642,8.771,9.984,8.771c0.006,0,0.014,0,0.022,0c3.771-0.008,8.013-1.153,12.607-3.404l0.258-0.127l2.881,7.774
			l-0.152,0.117c-4.762,3.658-10.689,5.673-16.688,5.673c-12.501,0-21.575-9.35-21.575-22.231c0-6.418,2.269-12.216,6.392-16.324
			c3.876-3.865,9.023-5.906,14.884-5.906c0.026,0,0.055,0,0.081,0C86.866,16.904,91.805,18.788,95.354,22.353z M89.48,34.588
			c-0.819-5.175-3.484-7.691-8.141-7.691c-4.51,0-7.72,2.798-8.848,7.691H89.48z M129.753,51.701
			c-1.483,0.508-3.702,1.115-5.841,1.125c-0.014,0-0.026,0-0.041,0c-1.847,0-3.247-0.461-4.159-1.369
			c-0.872-0.868-1.312-2.167-1.312-3.862V26.028h11.768v-7.96H118.4V6.502h-9.878v11.569l-8.129,1.553v6.404h8.129v22.244
			c0,4.125,1.16,7.373,3.448,9.652c2.257,2.248,5.51,3.436,9.413,3.436c0.024,0,0.049,0,0.073,0
			c3.543-0.013,7.41-1.061,10.603-2.875l0.187-0.106l-2.245-6.764L129.753,51.701z M166.386,18.329h7.118v41.61h-7.118v-5.286
			c-4.363,4.494-9.483,6.452-14.255,6.452c-10.496,0-17.981-9.607-17.981-21.965c0-12.341,7.46-21.981,17.985-21.976
			c4.783,0,9.903,1.97,14.251,6.449V18.329z M166.386,30.346c-4.101-4.283-9.475-6.457-13.7-6.457c-6.967,0-11.1,6.001-11.1,15.245
			c0,9.258,4.15,15.245,11.1,15.245c4.247,0,9.619-2.202,13.7-6.458V30.346z M220.485,53.722l-10.6-35.393h-6.364l-10.599,35.393
			l-11.914-35.393h-5.491l14.459,41.61h5.952l10.776-35.863l10.776,35.863h5.95l14.46-41.61h-5.491L220.485,53.722z M273.59,18.069
			h3.614v42.134h-3.614v-6.755c-4.516,5.112-10.195,7.918-16.059,7.918c-4.959,0-9.525-2.096-12.855-5.901
			c-3.558-4.064-5.439-9.691-5.439-16.271c0-7.121,2.257-13.289,6.357-17.366c3.241-3.221,7.351-4.922,11.892-4.922
			c0.035,0,0.069,0,0.104,0c5.754,0,11.55,2.863,16,7.88V18.069z M257.771,20.387c-8.826,0-14.756,7.535-14.756,18.748
			s5.931,18.748,14.756,18.748c5.729,0,11.489-3.17,15.819-8.702V29.052C269.266,23.544,263.506,20.387,257.771,20.387z
			 M317.161,17.549l-16.674,39.422l-16.957-39.422h-2.865l18.401,42.779l-7.204,17.036h2.848l25.297-59.814H317.161z"/>
		<path style="fill:#000B29;" d="M326.558,18.576h-1.502v-1.028h4.095v1.028h-1.47v3.431h-1.123V18.576z M329.53,17.549h1.044
			l1.407,2.64l1.391-2.64h1.044v4.459h-1.107V19.32l-1.091,2.34h-0.458l-1.138-2.34v2.688h-1.091V17.549z"/>
	</g>
</g>
</svg>
