<?xml version="1.0" encoding="iso-8859-1"?>
<!-- Generator: Adobe Illustrator 29.7.1, SVG Export Plug-In . SVG Version: 9.03 Build 0)  -->
<svg version="1.1" xmlns="http://www.w3.org/2000/svg" xmlns:xlink="http://www.w3.org/1999/xlink" x="0px" y="0px"
	 viewBox="0 0 296.66 170.632" style="enable-background:new 0 0 296.66 170.632;" xml:space="preserve">
<g id="Layer_2">
</g>
<g id="Layer_1">
	<g>
		<linearGradient id="SVGID_1_" gradientUnits="userSpaceOnUse" x1="228.3756" y1="59.9973" x2="257.1405" y2="59.9973">
			<stop  offset="0" style="stop-color:#000B29"/>
			<stop  offset="0.0204" style="stop-color:#04102E"/>
			<stop  offset="0.1865" style="stop-color:#1E3853"/>
			<stop  offset="0.3188" style="stop-color:#2F506B"/>
			<stop  offset="0.4" style="stop-color:#355973"/>
			<stop  offset="1" style="stop-color:#A8C7E9"/>
		</linearGradient>
		<path style="fill:url(#SVGID_1_);" d="M228.756,29.107L237.94,0h19.201l-19.177,59.474L228.756,29.107z M228.376,90.788
			l8.826,29.207h19.2l-18.443-59.679L228.376,90.788z"/>
		<path style="fill:#000B29;" d="M39.519,119.995V0.001h18.83v51.69h17.169V0.001h19.015v119.994H75.518V69.228H58.349v50.766
			H39.519z"/>
		<path style="fill:#000B29;" d="M173.724,119.995h-52.982v-17.168l33.967-71.258v-14.03h-15.874v16.43h-18.647V18.831
			c0-6.152,1.075-10.828,3.231-14.03c2.151-3.199,6.246-4.799,12.277-4.799h21.598c4.431,0,7.814,0.677,10.155,2.03
			c2.336,1.356,3.936,3.447,4.799,6.277c0.858,2.833,1.293,6.401,1.293,10.707v9.6c0,1.477-0.063,2.8-0.185,3.968
			c-0.124,1.171-0.402,2.339-0.832,3.508c-0.432,1.171-1.078,2.616-1.939,4.339l-29.904,62.397h33.043V119.995z"/>
		<polygon style="fill:#000B29;" points="213.415,0 194.214,0 212.788,59.894 193.476,119.995 212.676,119.995 231.576,59.894 		"/>
		<g>
			<path style="fill:#000B29;" d="M0,170.355v-17.783h12.095v2.348H3.011v5.384h8.062v2.319H3.011v7.732H0z"/>
			<path style="fill:#000B29;" d="M17.781,170.355v-17.783h3.011v17.783H17.781z"/>
			<path style="fill:#000B29;" d="M32.196,170.355v-15.435h-5.689v-2.348h14.358v2.348h-5.66v15.435H32.196z"/>
			<path style="fill:#000B29;" d="M46.581,170.355v-17.783h2.651l9.277,13.088v-13.088h2.983v17.783H58.84l-9.248-13.061v13.061
				H46.581z"/>
			<path style="fill:#000B29;" d="M68.31,170.355v-17.783h12.397v2.348h-9.386v5.384h8.367v2.319h-8.367v5.412h9.386v2.319H68.31z"
				/>
			<path style="fill:#000B29;" d="M92.195,170.632c-2.3,0-4.151-0.295-5.549-0.884v-2.65c0.79,0.295,1.642,0.533,2.554,0.717
				c0.91,0.185,1.816,0.276,2.718,0.276c1.418,0,2.481-0.166,3.19-0.497c0.709-0.331,1.063-0.995,1.063-1.988
				c0-0.607-0.146-1.095-0.441-1.464c-0.295-0.368-0.782-0.686-1.463-0.953c-0.683-0.266-1.621-0.547-2.818-0.842
				c-1.914-0.497-3.257-1.127-4.031-1.891c-0.772-0.764-1.16-1.818-1.16-3.162c0-1.564,0.571-2.789,1.713-3.672
				c1.142-0.884,2.844-1.325,5.108-1.325c1.032,0,2.003,0.073,2.913,0.22c0.912,0.147,1.625,0.313,2.139,0.497v2.651
				c-1.398-0.534-2.944-0.802-4.638-0.802c-1.325,0-2.357,0.176-3.092,0.525c-0.738,0.349-1.105,0.984-1.105,1.905
				c0,0.534,0.13,0.967,0.388,1.298c0.256,0.331,0.703,0.617,1.339,0.855c0.634,0.24,1.514,0.507,2.637,0.802
				c1.453,0.368,2.58,0.806,3.383,1.311c0.8,0.506,1.361,1.095,1.684,1.767c0.321,0.672,0.482,1.432,0.482,2.279
				c0,1.564-0.579,2.794-1.739,3.687C96.309,170.186,94.552,170.632,92.195,170.632z"/>
			<path style="fill:#000B29;" d="M110.834,170.632c-2.3,0-4.151-0.295-5.549-0.884v-2.65c0.79,0.295,1.642,0.533,2.554,0.717
				c0.91,0.185,1.816,0.276,2.718,0.276c1.418,0,2.481-0.166,3.19-0.497c0.709-0.331,1.063-0.995,1.063-1.988
				c0-0.607-0.146-1.095-0.441-1.464c-0.295-0.368-0.782-0.686-1.463-0.953c-0.683-0.266-1.621-0.547-2.818-0.842
				c-1.914-0.497-3.257-1.127-4.031-1.891c-0.772-0.764-1.16-1.818-1.16-3.162c0-1.564,0.571-2.789,1.713-3.672
				c1.142-0.884,2.844-1.325,5.108-1.325c1.032,0,2.003,0.073,2.913,0.22c0.912,0.147,1.625,0.313,2.139,0.497v2.651
				c-1.398-0.534-2.944-0.802-4.638-0.802c-1.325,0-2.357,0.176-3.092,0.525c-0.738,0.349-1.105,0.984-1.105,1.905
				c0,0.534,0.13,0.967,0.388,1.298c0.256,0.331,0.703,0.617,1.339,0.855c0.634,0.24,1.514,0.507,2.637,0.802
				c1.453,0.368,2.58,0.806,3.383,1.311c0.8,0.506,1.361,1.095,1.684,1.767c0.321,0.672,0.482,1.432,0.482,2.279
				c0,1.564-0.579,2.794-1.739,3.687C114.948,170.186,113.19,170.632,110.834,170.632z"/>
			<path style="fill:#000B29;" d="M139.135,170.632c-2.3,0-4.151-0.295-5.549-0.884v-2.65c0.79,0.295,1.642,0.533,2.554,0.717
				c0.91,0.185,1.816,0.276,2.718,0.276c1.418,0,2.481-0.166,3.19-0.497c0.709-0.331,1.063-0.995,1.063-1.988
				c0-0.607-0.146-1.095-0.441-1.464c-0.295-0.368-0.782-0.686-1.463-0.953c-0.683-0.266-1.621-0.547-2.818-0.842
				c-1.914-0.497-3.257-1.127-4.031-1.891c-0.772-0.764-1.16-1.818-1.16-3.162c0-1.564,0.571-2.789,1.713-3.672
				s2.844-1.325,5.108-1.325c1.032,0,2.003,0.073,2.913,0.22c0.912,0.147,1.625,0.313,2.139,0.497v2.651
				c-1.398-0.534-2.944-0.802-4.638-0.802c-1.325,0-2.357,0.176-3.092,0.525c-0.738,0.349-1.105,0.984-1.105,1.905
				c0,0.534,0.13,0.967,0.388,1.298c0.256,0.331,0.703,0.617,1.339,0.855c0.634,0.24,1.514,0.507,2.637,0.802
				c1.453,0.368,2.58,0.806,3.383,1.311c0.8,0.506,1.361,1.095,1.684,1.767c0.321,0.672,0.482,1.432,0.482,2.279
				c0,1.564-0.579,2.794-1.739,3.687C143.249,170.186,141.492,170.632,139.135,170.632z"/>
			<path style="fill:#000B29;" d="M156.007,170.355l-4.143-17.783h2.954l3.011,13.337l3.369-11.184v-2.154h2.456l3.783,13.337
				l3.066-13.337h2.926l-4.114,17.783h-2.954l-3.562-12.453l-3.783,12.453H156.007z"/>
			<path style="fill:#000B29;" d="M179.696,170.355v-17.783h3.011v17.783H179.696z"/>
			<path style="fill:#000B29;" d="M189.499,170.355v-17.783h3.092l5.634,11.515l5.605-11.515h3.092v17.783h-2.983V157.46
				l-4.805,9.83h-1.822l-4.831-9.83v12.895H189.499z"/>
			<path style="fill:#000B29;" d="M228.762,170.632c-2.3,0-4.151-0.295-5.549-0.884v-2.65c0.79,0.295,1.642,0.533,2.554,0.717
				c0.91,0.185,1.816,0.276,2.718,0.276c1.418,0,2.481-0.166,3.19-0.497c0.709-0.331,1.063-0.995,1.063-1.988
				c0-0.607-0.146-1.095-0.441-1.464c-0.295-0.368-0.782-0.686-1.463-0.953c-0.683-0.266-1.621-0.547-2.818-0.842
				c-1.914-0.497-3.257-1.127-4.031-1.891c-0.772-0.764-1.16-1.818-1.16-3.162c0-1.564,0.571-2.789,1.713-3.672
				s2.844-1.325,5.108-1.325c1.032,0,2.003,0.073,2.913,0.22c0.912,0.147,1.625,0.313,2.139,0.497v2.651
				c-1.398-0.534-2.944-0.802-4.638-0.802c-1.325,0-2.357,0.176-3.092,0.525c-0.738,0.349-1.105,0.984-1.105,1.905
				c0,0.534,0.13,0.967,0.388,1.298c0.256,0.331,0.703,0.617,1.339,0.855c0.634,0.24,1.514,0.507,2.637,0.802
				c1.453,0.368,2.58,0.806,3.383,1.311c0.8,0.506,1.361,1.095,1.684,1.767c0.321,0.672,0.482,1.432,0.482,2.279
				c0,1.564-0.579,2.794-1.739,3.687C232.876,170.186,231.119,170.632,228.762,170.632z"/>
			<path style="fill:#000B29;" d="M242.017,170.355v-17.783h7.926c1.361,0,2.485,0.258,3.369,0.773
				c0.884,0.516,1.536,1.22,1.961,2.113c0.423,0.893,0.634,1.91,0.634,3.051c0,1.768-0.547,3.185-1.642,4.252
				c-1.097,1.068-2.574,1.602-4.433,1.602h-4.803v5.992H242.017z M245.028,161.989h4.252c1.195,0,2.097-0.313,2.704-0.939
				s0.912-1.473,0.912-2.541c0-1.141-0.291-2.025-0.87-2.65c-0.581-0.626-1.451-0.939-2.611-0.939h-4.388V161.989z"/>
			<path style="fill:#000B29;" d="M261.097,170.355l6.792-17.783h3.369l6.737,17.783h-3.092l-1.768-4.584h-7.15l-1.768,4.584
				H261.097z M266.454,163.453h6.185l-3.092-8.146L266.454,163.453z"/>
			<path style="fill:#000B29;" d="M289.646,170.632c-2.3,0-4.151-0.295-5.549-0.884v-2.65c0.79,0.295,1.642,0.533,2.554,0.717
				c0.91,0.185,1.816,0.276,2.718,0.276c1.418,0,2.481-0.166,3.19-0.497c0.709-0.331,1.063-0.995,1.063-1.988
				c0-0.607-0.146-1.095-0.441-1.464c-0.295-0.368-0.782-0.686-1.463-0.953c-0.683-0.266-1.621-0.547-2.818-0.842
				c-1.914-0.497-3.257-1.127-4.031-1.891c-0.772-0.764-1.16-1.818-1.16-3.162c0-1.564,0.571-2.789,1.713-3.672
				s2.844-1.325,5.108-1.325c1.032,0,2.003,0.073,2.913,0.22c0.912,0.147,1.625,0.313,2.139,0.497v2.651
				c-1.398-0.534-2.944-0.802-4.638-0.802c-1.325,0-2.357,0.176-3.092,0.525c-0.738,0.349-1.105,0.984-1.105,1.905
				c0,0.534,0.13,0.967,0.388,1.298c0.256,0.331,0.703,0.617,1.339,0.855c0.634,0.24,1.514,0.507,2.637,0.802
				c1.453,0.368,2.58,0.806,3.383,1.311c0.801,0.506,1.361,1.095,1.684,1.767c0.321,0.672,0.482,1.432,0.482,2.279
				c0,1.564-0.579,2.794-1.739,3.687C293.76,170.186,292.003,170.632,289.646,170.632z"/>
		</g>
	</g>
	<g>
		<g>
			<path style="fill:#000B29;" d="M273.102,3.978c0-0.633-0.174-1.081-0.522-1.341s-0.875-0.391-1.583-0.391h-1.938v5.589h0.894
				V5.767h1.23l1.062,2.068h0.95l-1.099-2.18C272.767,5.419,273.102,4.86,273.102,3.978z M271.203,5.003h-1.249V3.009h0.987
				c0.435,0,0.757,0.074,0.969,0.223c0.211,0.149,0.316,0.404,0.316,0.764s-0.081,0.618-0.242,0.773
				C271.823,4.925,271.563,5.003,271.203,5.003z"/>
			<path style="fill:#000B29;" d="M270.948,0c-2.783,0-5.04,2.256-5.04,5.04s2.257,5.04,5.04,5.04c2.783,0,5.04-2.257,5.04-5.04
				S273.732,0,270.948,0z M270.948,9.043c-2.207,0-4.003-1.796-4.003-4.003s1.796-4.003,4.003-4.003
				c2.207,0,4.003,1.796,4.003,4.003S273.156,9.043,270.948,9.043z"/>
		</g>
	</g>
</g>
</svg>
