<?xml version="1.0" encoding="iso-8859-1"?>
<!-- Generator: Adobe Illustrator 29.7.1, SVG Export Plug-In . SVG Version: 9.03 Build 0)  -->
<svg version="1.1" xmlns="http://www.w3.org/2000/svg" xmlns:xlink="http://www.w3.org/1999/xlink" x="0px" y="0px"
	 viewBox="0 0 187.242 138.815" style="enable-background:new 0 0 187.242 138.815;" xml:space="preserve">
<g id="Layer_2">
</g>
<g id="Layer_1">
	<g>
		<g>
			<path style="fill:#000B29;" d="M0,95.774V0h12.193v86.257h51.011v9.518H0z"/>
			<g>
				<path style="fill:#000B29;" d="M27.412,138.815c-1.263,0-2.437-0.091-3.523-0.274c-1.089-0.183-2.03-0.447-2.822-0.793v-3.63
					c0.893,0.365,1.859,0.661,2.897,0.884c1.038,0.225,2.054,0.336,3.052,0.336c1.423,0,2.469-0.132,3.141-0.397
					c0.671-0.264,1.006-0.864,1.006-1.799c0-0.59-0.142-1.058-0.425-1.403c-0.286-0.346-0.778-0.657-1.479-0.931
					c-0.704-0.274-1.693-0.585-2.975-0.931c-2.054-0.568-3.499-1.281-4.331-2.135c-0.835-0.855-1.252-2.033-1.252-3.539
					c0-1.81,0.661-3.203,1.982-4.178c1.321-0.976,3.245-1.465,5.767-1.465c1.177,0,2.276,0.082,3.293,0.243
					c1.017,0.163,1.84,0.356,2.472,0.58v3.63c-1.669-0.63-3.408-0.946-5.216-0.946c-1.281,0-2.287,0.136-3.02,0.412
					c-0.733,0.274-1.099,0.849-1.099,1.723c0,0.508,0.134,0.915,0.399,1.22c0.262,0.306,0.717,0.58,1.356,0.824
					c0.639,0.245,1.541,0.519,2.699,0.824c1.608,0.427,2.849,0.936,3.724,1.525c0.872,0.591,1.479,1.261,1.814,2.014
					c0.334,0.753,0.503,1.597,0.503,2.532c0,1.708-0.65,3.08-1.953,4.118C32.12,138.296,30.116,138.815,27.412,138.815z"/>
				<path style="fill:#000B29;" d="M50.597,138.51v-19.646h9.213c1.546,0,2.812,0.294,3.799,0.884
					c0.984,0.59,1.723,1.394,2.212,2.41c0.487,1.018,0.73,2.176,0.73,3.478c0,1.323-0.278,2.492-0.837,3.508
					c-0.562,1.018-1.354,1.806-2.381,2.365c-1.027,0.559-2.242,0.839-3.646,0.839h-4.97v6.162H50.597z M54.716,129.083h4.117
					c1.18,0,2.071-0.309,2.67-0.93c0.599-0.621,0.899-1.459,0.899-2.517c0-1.138-0.284-2.008-0.853-2.608
					c-0.57-0.599-1.423-0.9-2.563-0.9h-4.269V129.083z"/>
				<path style="fill:#000B29;" d="M80.584,138.51l7.504-19.646h4.516l7.474,19.646h-4.272l-1.859-4.728h-7.231l-1.83,4.728H80.584z
					 M87.326,130.609h6.011l-3.02-7.901L87.326,130.609z"/>
				<path style="fill:#000B29;" d="M121.401,138.815c-1.263,0-2.437-0.091-3.523-0.274c-1.089-0.183-2.03-0.447-2.822-0.793v-3.63
					c0.893,0.365,1.859,0.661,2.897,0.884c1.038,0.225,2.054,0.336,3.052,0.336c1.423,0,2.469-0.132,3.141-0.397
					c0.671-0.264,1.006-0.864,1.006-1.799c0-0.59-0.142-1.058-0.425-1.403c-0.286-0.346-0.778-0.657-1.479-0.931
					c-0.704-0.274-1.693-0.585-2.975-0.931c-2.054-0.568-3.499-1.281-4.331-2.135c-0.835-0.855-1.252-2.033-1.252-3.539
					c0-1.81,0.661-3.203,1.982-4.178c1.321-0.976,3.245-1.465,5.767-1.465c1.177,0,2.276,0.082,3.293,0.243
					c1.017,0.163,1.84,0.356,2.472,0.58v3.63c-1.669-0.63-3.408-0.946-5.216-0.946c-1.281,0-2.287,0.136-3.02,0.412
					c-0.733,0.274-1.099,0.849-1.099,1.723c0,0.508,0.134,0.915,0.399,1.22c0.262,0.306,0.717,0.58,1.356,0.824
					c0.639,0.245,1.541,0.519,2.699,0.824c1.608,0.427,2.849,0.936,3.724,1.525c0.872,0.591,1.479,1.261,1.814,2.014
					c0.334,0.753,0.503,1.597,0.503,2.532c0,1.708-0.65,3.08-1.953,4.118C126.109,138.296,124.105,138.815,121.401,138.815z"/>
			</g>
			<g>
				<linearGradient id="SVGID_1_" gradientUnits="userSpaceOnUse" x1="50.4279" y1="27.1169" x2="187.242" y2="27.1169">
					<stop  offset="0" style="stop-color:#000B29"/>
					<stop  offset="0.0254" style="stop-color:#04102E"/>
					<stop  offset="0.2332" style="stop-color:#1E3853"/>
					<stop  offset="0.3986" style="stop-color:#2F506B"/>
					<stop  offset="0.5" style="stop-color:#355973"/>
					<stop  offset="0.6503" style="stop-color:#6183A0"/>
					<stop  offset="0.8032" style="stop-color:#88A8C8"/>
					<stop  offset="0.9252" style="stop-color:#9FBFE0"/>
					<stop  offset="1" style="stop-color:#A8C7E9"/>
				</linearGradient>
				<path style="fill:url(#SVGID_1_);" d="M150.062,44.385V0h-12.196v41.074c-16.089-5.301-32.027-13.197-50.564-12.87V0H75.109
					v29.622c-7.691,1.685-15.859,4.946-24.682,10.474c55.909-16.698,69.753,19.194,109.968,13.523
					c5.433-0.766,18.996-5.01,26.846-14.274C173.748,46.36,161.688,46.726,150.062,44.385z"/>
				
					<linearGradient id="SVGID_00000096780651048021735360000001204497045602919862_" gradientUnits="userSpaceOnUse" x1="37.9299" y1="68.1075" x2="172.5371" y2="68.1075">
					<stop  offset="0" style="stop-color:#000B29"/>
					<stop  offset="0.0254" style="stop-color:#04102E"/>
					<stop  offset="0.2332" style="stop-color:#1E3853"/>
					<stop  offset="0.3986" style="stop-color:#2F506B"/>
					<stop  offset="0.5" style="stop-color:#355973"/>
					<stop  offset="0.6503" style="stop-color:#6183A0"/>
					<stop  offset="0.8032" style="stop-color:#88A8C8"/>
					<stop  offset="0.9252" style="stop-color:#9FBFE0"/>
					<stop  offset="1" style="stop-color:#A8C7E9"/>
				</linearGradient>
				<path style="fill:url(#SVGID_00000096780651048021735360000001204497045602919862_);" d="M161.167,58.376
					c-3.146,0.444-6.292,0.669-9.349,0.669c-14.084,0-25.274-4.693-36.095-9.233c-10.984-4.608-22.34-9.371-37.304-9.371
					c-19.313,0-33.611,7.919-40.489,12.077c14.885-5.472,26.835-6.422,37.18-5.054v48.311h12.193V50.229
					c17.706,5.636,31.487,16.508,50.564,17.325v28.22h12.196V66.664c5.671-1.265,15.497-4.862,22.475-11.556
					C167.693,57.049,163.445,58.055,161.167,58.376z"/>
			</g>
		</g>
		<path style="fill:#000B29;" d="M159.598,1.028h-1.502V0h4.095v1.028h-1.47v3.431h-1.123V1.028z M162.571,0h1.044l1.407,2.64
			L166.413,0h1.044v4.459h-1.107V1.771l-1.091,2.34H164.8l-1.138-2.34v2.688h-1.091V0z"/>
	</g>
</g>
</svg>
