<?xml version="1.0" encoding="iso-8859-1"?>
<!-- Generator: Adobe Illustrator 29.7.1, SVG Export Plug-In . SVG Version: 9.03 Build 0)  -->
<svg version="1.1" xmlns="http://www.w3.org/2000/svg" xmlns:xlink="http://www.w3.org/1999/xlink" x="0px" y="0px"
	 viewBox="0 0 371.255 140.591" style="enable-background:new 0 0 371.255 140.591;" xml:space="preserve">
<g id="Layer_2">
</g>
<g id="Layer_1">
	<g>
		<g>
			<g>
				<g>
					<polygon style="fill:#000B29;" points="5.054,112.047 0,112.047 0,140.028 43.154,140.028 43.154,136.022 5.054,136.022 					
						"/>
					<polygon style="fill:#000B29;" points="59.149,127.517 99.729,127.517 99.729,123.752 59.149,123.752 59.149,116.053 
						101.496,116.053 101.496,112.047 54.095,112.047 54.095,140.028 101.762,140.028 101.762,136.022 59.149,136.022 					"/>
					<path style="fill:#000B29;" d="M130.58,128.282h29.911v5.959c-4.481,1.144-12.031,2.343-20.085,2.343
						c-9.309,0-14.629-0.726-18.36-2.504c-2.907-1.381-4.643-4.208-4.643-7.56c0-3.363,1.247-5.747,3.925-7.501
						c3.529-2.293,9.592-3.413,19.078-3.531c7.038,0,14.36,0.778,23.038,2.449l0.286,0.056l1.047-3.856l-0.315-0.074
						c-3.356-0.777-12.413-2.582-24.056-2.582c-9.439,0-17.721,1.642-22.156,4.39c-4.03,2.459-5.991,5.942-5.991,10.648
						c0,4.789,2.387,8.733,6.549,10.82c4.576,2.278,11.036,3.25,21.597,3.25c12.127,0,22.136-2.627,24.913-3.431l0.229-0.067
						v-12.578H130.58V128.282z"/>
					<polygon style="fill:#000B29;" points="183.758,127.517 224.338,127.517 224.338,123.752 183.758,123.752 183.758,116.053 
						226.105,116.053 226.105,112.047 178.704,112.047 178.704,140.028 226.372,140.028 226.372,136.022 183.758,136.022 					"/>
					<path style="fill:#000B29;" d="M285.147,134.593c-3.532-1.911-7.061-3.816-10.59-5.72
						c-10.142-5.475-20.631-11.137-30.938-16.788l-4.093-0.038v27.982h5.054v-22.545c13.871,7.54,27.655,15.003,41.529,22.507
						l4.093,0.038v-27.982h-5.054V134.593z"/>
					<path style="fill:#000B29;" d="M349.807,115.347c-3.868-2.284-10.223-3.301-20.602-3.301H303.8v27.982h26.952
						c10.113,0,15.288-0.829,19.098-3.061c3.978-2.332,5.91-5.881,5.91-10.851C355.76,121.27,353.813,117.747,349.807,115.347z
						 M308.853,116.053h20.218c8.785,0,14.247,0.768,17.195,2.414c2.968,1.666,4.351,4.098,4.351,7.65
						c0,3.694-1.365,6.15-4.302,7.729c-2.878,1.545-7.426,2.175-15.693,2.175h-21.768V116.053z"/>
				</g>
				<g>
					<path style="fill:#000B29;" d="M0,96.171v-9.734h2.402l2.645,5.396l2.631-5.396h2.387v9.734H7.632v-5.592l-1.918,3.929H4.369
						l-1.935-3.929v5.592H0z"/>
					<path style="fill:#000B29;" d="M31.257,96.171v-9.734h2.434v9.734H31.257z"/>
					<path style="fill:#000B29;" d="M59.811,96.322c-1.704,0-3.002-0.435-3.894-1.307c-0.89-0.872-1.336-2.083-1.336-3.635
						c0-1.623,0.435-2.877,1.307-3.764s2.173-1.33,3.906-1.33c0.597,0,1.127,0.045,1.596,0.136c0.469,0.09,0.918,0.212,1.353,0.362
						v2.131c-0.878-0.362-1.799-0.545-2.767-0.545c-1.008,0-1.744,0.242-2.214,0.726c-0.469,0.484-0.704,1.244-0.704,2.283
						c0,0.987,0.246,1.712,0.742,2.176c0.493,0.464,1.229,0.695,2.205,0.695c0.475,0,0.945-0.043,1.408-0.129
						c0.464-0.085,0.91-0.219,1.344-0.4v2.146c-0.423,0.142-0.872,0.252-1.344,0.333C60.939,96.281,60.405,96.322,59.811,96.322z"/>
					<path style="fill:#000B29;" d="M83.646,96.171v-9.734h2.434v3.854h3.81v-3.854h2.431v9.734H89.89v-3.854h-3.81v3.854H83.646z"
						/>
					<path style="fill:#000B29;" d="M113.211,96.171l3.717-9.734h2.631l3.717,9.734h-2.538l-0.878-2.206h-3.251l-0.861,2.206
						H113.211z M116.943,92.165h2.585l-1.298-3.386L116.943,92.165z"/>
					<path style="fill:#000B29;" d="M144.164,96.171v-9.734h7.18v1.875h-4.746v2.04h4.187v1.905h-4.187v2.04h4.746v1.875H144.164z"
						/>
					<path style="fill:#000B29;" d="M172.159,96.171v-9.734h2.434v7.859h4.595v1.875H172.159z"/>
					<path style="fill:#000B29;" d="M205.517,96.171v-9.734h4.792c0.774,0,1.414,0.154,1.918,0.461s0.881,0.723,1.127,1.247
						c0.246,0.524,0.371,1.114,0.371,1.769c0,0.665-0.142,1.255-0.423,1.767c-0.284,0.514-0.684,0.916-1.202,1.202
						c-0.519,0.287-1.136,0.43-1.851,0.43h-2.298v2.857H205.517z M207.951,91.44h1.753c0.513,0,0.898-0.141,1.156-0.423
						c0.258-0.281,0.385-0.655,0.385-1.118c0-0.504-0.119-0.894-0.353-1.171c-0.238-0.278-0.608-0.416-1.113-0.416h-1.828V91.44z"/>
					<path style="fill:#000B29;" d="M234.326,96.171v-9.734h2.434v3.854h3.81v-3.854h2.431v9.734h-2.431v-3.854h-3.81v3.854H234.326
						z"/>
					<path style="fill:#000B29;" d="M264.193,96.171v-9.734h7.18v1.875h-4.746v2.04h4.187v1.905h-4.187v2.04h4.746v1.875H264.193z"
						/>
					<path style="fill:#000B29;" d="M292.185,96.171v-9.734h2.434v7.859h4.595v1.875H292.185z"/>
					<path style="fill:#000B29;" d="M319.8,96.171v-9.734h4.792c0.774,0,1.414,0.154,1.918,0.461s0.881,0.723,1.127,1.247
						c0.246,0.524,0.371,1.114,0.371,1.769c0,0.665-0.142,1.255-0.423,1.767c-0.284,0.514-0.684,0.916-1.202,1.202
						c-0.519,0.287-1.136,0.43-1.851,0.43h-2.298v2.857H319.8z M322.234,91.44h1.753c0.513,0,0.898-0.141,1.156-0.423
						c0.258-0.281,0.385-0.655,0.385-1.118c0-0.504-0.119-0.894-0.353-1.171c-0.238-0.278-0.608-0.416-1.113-0.416h-1.828V91.44z"/>
					<path style="fill:#000B29;" d="M351.706,96.322c-0.643,0-1.246-0.048-1.805-0.143c-0.559-0.096-1.04-0.233-1.443-0.416v-2.07
						c0.443,0.191,0.933,0.348,1.475,0.468c0.539,0.122,1.049,0.183,1.533,0.183c0.606,0,1.055-0.056,1.353-0.167
						c0.296-0.112,0.446-0.353,0.446-0.726c0-0.252-0.072-0.453-0.22-0.604c-0.145-0.152-0.382-0.285-0.71-0.401
						c-0.327-0.116-0.774-0.254-1.339-0.416c-0.664-0.201-1.194-0.424-1.585-0.672c-0.394-0.246-0.678-0.546-0.849-0.9
						c-0.171-0.352-0.255-0.785-0.255-1.299c0-0.927,0.33-1.637,0.997-2.131c0.666-0.494,1.649-0.74,2.947-0.74
						c0.565,0,1.116,0.042,1.649,0.127c0.533,0.085,0.968,0.184,1.301,0.296v2.086c-0.435-0.172-0.869-0.298-1.31-0.378
						c-0.438-0.081-0.863-0.122-1.278-0.122c-0.542,0-0.985,0.051-1.321,0.152c-0.339,0.1-0.507,0.332-0.507,0.695
						c0,0.212,0.061,0.38,0.183,0.506c0.122,0.126,0.33,0.239,0.626,0.34c0.298,0.1,0.704,0.222,1.217,0.362
						c0.797,0.212,1.405,0.466,1.828,0.763c0.426,0.297,0.716,0.64,0.878,1.029c0.162,0.387,0.243,0.823,0.243,1.307
						c0,0.856-0.333,1.549-1,2.079C354.097,96.058,353.077,96.322,351.706,96.322z"/>
				</g>
			</g>
			<linearGradient id="SVGID_1_" gradientUnits="userSpaceOnUse" x1="177.8799" y1="9.094947e-13" x2="177.8799" y2="72.5631">
				<stop  offset="0" style="stop-color:#A8C7E9"/>
				<stop  offset="0.1503" style="stop-color:#7C9DBC"/>
				<stop  offset="0.3032" style="stop-color:#557894"/>
				<stop  offset="0.4252" style="stop-color:#3E617C"/>
				<stop  offset="0.5" style="stop-color:#355973"/>
				<stop  offset="0.5254" style="stop-color:#31546E"/>
				<stop  offset="0.7332" style="stop-color:#172C49"/>
				<stop  offset="0.8986" style="stop-color:#061431"/>
				<stop  offset="1" style="stop-color:#000B29"/>
			</linearGradient>
			<path style="fill:url(#SVGID_1_);" d="M213.91,25.237c-0.593-0.101-1.174-0.087-1.744-0.021
				c-0.375-0.917-1.098-3.413,0.198-7.277l-0.043,0.021c0.373-1.263,0.307-2.658-0.32-3.932c-1.325-2.692-4.579-3.8-7.271-2.475
				c-0.056,0.027-0.101,0.067-0.155,0.097c-0.563-0.618-2.019-2.599-2.184-6.418c0.001-0.106-0.013-0.212-0.019-0.319
				c-0.003-0.11-0.019-0.201-0.019-0.315l-0.01,0.009c-0.12-1.125-0.587-2.221-1.449-3.087c-2.009-2.021-5.276-2.03-7.298-0.02
				c-2.021,2.01-2.029,5.278-0.02,7.299c0.862,0.866,1.954,1.339,3.079,1.466l-0.017,0.017c0.197,0.001,0.359,0.027,0.547,0.035
				c0.016,0,0.03,0.003,0.045,0.003c3.548,0.163,5.521,1.433,6.287,2.08c-1.766,1.584-2.36,4.19-1.261,6.424
				c0.626,1.274,1.692,2.177,2.919,2.652l-0.043,0.022c3.489,1.205,5.078,3.044,5.719,4.019c-2.042,0.715-3.658,2.461-4.05,4.745
				c-0.318,1.848,0.244,3.627,1.357,4.965l-0.052-0.009c2.305,3.292,2.35,5.868,2.255,6.885c-2.346-0.461-4.851,0.413-6.351,2.473
				c-1.161,1.596-1.442,3.546-0.982,5.317l0,0c0.576,3.763-0.391,6.067-0.949,7.039c-1.727-1.338-4.069-1.81-6.284-1.036
				c-0.869,0.304-1.636,0.769-2.278,1.352c-0.839,0.76-1.438,1.729-1.802,2.783l-0.014-0.043c-2.288,4.691-5.367,5.602-5.541,5.657
				l-8.272,2.629l-8.361-2.658c-0.477-0.158-3.306-1.217-5.457-5.629l-0.016,0.043c-0.363-1.054-0.962-2.023-1.801-2.783
				c-0.642-0.582-1.409-1.048-2.278-1.352c-2.217-0.775-4.56-0.302-6.287,1.038c-0.56-0.97-1.527-3.276-0.952-7.042l0,0
				c0.46-1.772,0.179-3.721-0.982-5.317c-1.5-2.06-4.005-2.934-6.349-2.473c-0.095-1.017-0.052-3.593,2.253-6.885l-0.052,0.009
				c1.112-1.337,1.675-3.117,1.357-4.965c-0.392-2.284-2.006-4.03-4.05-4.745c0.642-0.975,2.23-2.814,5.719-4.019l-0.043-0.022
				c1.227-0.474,2.292-1.378,2.92-2.652c1.099-2.234,0.503-4.84-1.263-6.424c0.767-0.647,2.739-1.917,6.287-2.08
				c0.014,0,0.029-0.003,0.045-0.003c0.188-0.008,0.35-0.033,0.547-0.035l-0.017-0.017c1.125-0.127,2.219-0.6,3.079-1.466
				c2.009-2.021,2-5.289-0.02-7.299c-2.021-2.01-5.289-2-7.298,0.02c-0.861,0.866-1.328,1.961-1.449,3.087l-0.01-0.009
				c0,0.114-0.016,0.208-0.019,0.319c-0.004,0.105-0.02,0.208-0.019,0.314c-0.163,3.82-1.621,5.801-2.184,6.419
				c-0.054-0.03-0.098-0.069-0.155-0.097c-2.69-1.324-5.946-0.216-7.271,2.475c-0.626,1.274-0.693,2.669-0.32,3.931l-0.042-0.02
				c1.294,3.863,0.571,6.36,0.197,7.277c-0.57-0.066-1.151-0.08-1.744,0.021c-3.351,0.576-5.602,3.76-5.026,7.111
				c0.318,1.848,1.442,3.337,2.936,4.226l-0.049,0.009c3.463,2.47,4.271,5.03,4.461,5.894c-0.441,0.186-0.871,0.41-1.274,0.704
				c-2.829,2.06-3.454,6.024-1.394,8.854c1.161,1.596,2.932,2.462,4.758,2.569l-0.045,0.033c3.996,0.647,5.871,2.431,6.52,3.199
				c-0.535,0.618-0.975,1.338-1.261,2.157c-1.216,3.478,0.618,7.283,4.096,8.498c0.434,0.152,0.875,0.257,1.313,0.316
				c1.587,0.214,3.152-0.182,4.453-1.01l-0.014,0.043c4.761-2.269,7.76-1.011,7.872-0.97c0.009,0.003,0.017-0.004,0.026-0.001
				l6.545,2.081l-7.424,2.36c-0.338,0.108-0.524,0.469-0.417,0.806c0.087,0.273,0.338,0.448,0.61,0.448
				c0.064,0,0.13-0.01,0.194-0.03l9.155-2.91l9.112,2.897c0.064,0.02,0.13,0.03,0.194,0.03c0.272,0,0.524-0.175,0.61-0.448
				c0.107-0.337-0.078-0.697-0.417-0.806l-7.382-2.347l6.546-2.08c0.006-0.002,0.013,0.004,0.019,0.001
				c0.114-0.04,3.113-1.299,7.874,0.97l-0.016-0.043c1.303,0.827,2.867,1.224,4.455,1.01c0.438-0.059,0.879-0.164,1.313-0.316
				c3.477-1.215,5.312-5.02,4.096-8.498c-0.286-0.82-0.728-1.54-1.264-2.16c0.652-0.77,2.528-2.549,6.517-3.196l-0.045-0.033
				c1.827-0.107,3.597-0.973,4.758-2.569c2.06-2.83,1.436-6.794-1.394-8.854c-0.404-0.294-0.833-0.518-1.273-0.704
				c0.188-0.864,0.997-3.424,4.459-5.894L216,36.574c1.494-0.889,2.618-2.379,2.936-4.226
				C219.512,28.997,217.261,25.814,213.91,25.237z"/>
		</g>
		<g>
			<g>
				<path style="fill:#000B29;" d="M368.369,116.025c0-0.633-0.174-1.081-0.522-1.341s-0.875-0.391-1.583-0.391h-1.938v5.589h0.894
					v-2.068h1.23l1.062,2.068h0.95l-1.099-2.18C368.034,117.466,368.369,116.907,368.369,116.025z M366.469,117.049h-1.249v-1.994
					h0.987c0.435,0,0.758,0.074,0.969,0.223c0.211,0.149,0.316,0.404,0.316,0.764c0,0.36-0.081,0.618-0.242,0.773
					C367.09,116.972,366.829,117.049,366.469,117.049z"/>
				<path style="fill:#000B29;" d="M366.215,112.047c-2.783,0-5.04,2.256-5.04,5.04s2.257,5.04,5.04,5.04
					c2.783,0,5.04-2.257,5.04-5.04S368.998,112.047,366.215,112.047z M366.215,121.09c-2.207,0-4.003-1.796-4.003-4.003
					s1.796-4.003,4.003-4.003c2.207,0,4.003,1.796,4.003,4.003S368.422,121.09,366.215,121.09z"/>
			</g>
		</g>
	</g>
</g>
</svg>
