<?xml version="1.0" encoding="iso-8859-1"?>
<!-- Generator: Adobe Illustrator 29.7.1, SVG Export Plug-In . SVG Version: 9.03 Build 0)  -->
<svg version="1.1" xmlns="http://www.w3.org/2000/svg" xmlns:xlink="http://www.w3.org/1999/xlink" x="0px" y="0px"
	 viewBox="0 0 555.023 138.01" style="enable-background:new 0 0 555.023 138.01;" xml:space="preserve">
<g id="Layer_2">
</g>
<g id="Layer_1">
	<g>
		<g>
			<g>
				<g>
					<path style="fill:#000B29;" d="M36.116,78.219v28.599h-3.432V83.04l-14.545,17.609h-0.244L3.35,83.04v23.778H0V78.219h3.759
						l14.34,17.486L32.44,78.219H36.116z"/>
					<path style="fill:#000B29;" d="M54.175,106.818V78.219h3.432v28.599H54.175z"/>
					<path style="fill:#000B29;" d="M102.14,99.014l3.267,1.635c-2.696,4.29-7.68,7.028-14.667,7.028
						c-10.664,0-17.2-5.884-17.2-15.159c0-9.274,6.536-15.158,17.322-15.158c6.865,0,11.849,2.778,14.545,7.028l-3.267,1.635
						c-2.247-3.8-6.333-5.475-11.319-5.475c-8.293,0-13.769,4.086-13.769,11.971c0,7.886,5.475,11.972,13.769,11.972
						C95.807,104.49,99.934,102.855,102.14,99.014z"/>
					<path style="fill:#000B29;" d="M150.881,78.219v28.599h-3.432v-12.87h-23.533v12.87h-3.432V78.219h3.432V90.68h23.533V78.219
						H150.881z"/>
					<path style="fill:#000B29;" d="M192.104,99.137h-19.285l-4.167,7.681h-3.799l15.729-28.599h3.84l15.729,28.599h-3.881
						L192.104,99.137z M190.428,96.032l-7.966-14.667l-7.966,14.667H190.428z"/>
					<path style="fill:#000B29;" d="M241.785,103.631v3.187h-27.66V78.219h27.251v3.187h-23.82v9.275h20.183v3.187h-20.183v9.764
						H241.785z"/>
					<path style="fill:#000B29;" d="M282.763,103.631v3.187h-25.329V78.219h3.432v25.413H282.763z"/>
					<path style="fill:#000B29;" d="M334.854,87.288c0,5.72-4.372,9.071-10.949,9.071h-15.689v10.459h-3.432V78.219h19.12
						C330.481,78.219,334.854,81.569,334.854,87.288z M331.341,87.288c0-4.003-3.023-5.883-7.682-5.883h-15.443v11.767h15.443
						C328.318,93.172,331.341,91.293,331.341,87.288z"/>
					<path style="fill:#000B29;" d="M380.325,78.219v28.599h-3.432v-12.87H353.36v12.87h-3.432V78.219h3.432V90.68h23.533V78.219
						H380.325z"/>
					<path style="fill:#000B29;" d="M426.045,103.631v3.187h-27.66V78.219h27.251v3.187h-23.82v9.275H422v3.187h-20.183v9.764
						H426.045z"/>
					<path style="fill:#000B29;" d="M467.022,103.631v3.187h-25.331V78.219h3.432v25.413H467.022z"/>
					<path style="fill:#000B29;" d="M511.35,87.288c0,5.72-4.372,9.071-10.949,9.071h-15.689v10.459h-3.432V78.219h19.12
						C506.978,78.219,511.35,81.569,511.35,87.288z M507.837,87.288c0-4.003-3.023-5.883-7.682-5.883h-15.443v11.767h15.443
						C504.814,93.172,507.837,91.293,507.837,87.288z"/>
					<path style="fill:#000B29;" d="M555.023,98.525c0,5.27-5.352,9.152-14.667,9.152c-6.252,0-12.257-1.962-16.711-5.884
						l2.412-2.574c4.167,3.677,8.783,5.271,14.504,5.271c6.904,0,10.949-2.166,10.949-5.72c0-3.473-4.208-4.331-11.93-4.985
						c-7.641-0.653-14.953-2.328-14.953-7.966c0-5.393,6.782-8.458,14.421-8.458c6.211,0,11.319,2.166,14.628,5.108l-2.698,2.288
						c-2.777-2.738-6.985-4.167-11.766-4.209c-5.108-0.041-11.073,1.39-11.073,5.148c0,3.554,5.394,4.29,12.135,4.821
						C548.977,91.21,555.023,92.886,555.023,98.525z"/>
				</g>
				<g>
					<path style="fill:#000B29;" d="M98.163,134.897c0,1.836-1.743,3.113-5.043,3.113c-2.353,0-4.269-0.665-5.693-1.875l1.225-1.45
						c1.144,1.05,2.619,1.542,4.523,1.542c1.887,0,2.846-0.359,2.846-1.13c0-0.772-0.959-0.984-3.1-1.171
						c-2.66-0.226-5.134-0.811-5.134-2.807c0-1.941,2.074-3.006,4.949-3.006c2.034,0,3.789,0.506,4.974,1.423l-1.17,1.477
						c-1.024-0.785-2.288-1.104-3.803-1.117c-1.264-0.013-2.808,0.212-2.808,1.064c0,0.798,1.331,0.879,3.18,1.025
						C96.074,132.223,98.163,132.849,98.163,134.897z"/>
					<path style="fill:#000B29;" d="M109.735,137.717v-9.311h2.129v9.311H109.735z"/>
					<path style="fill:#000B29;" d="M134.921,135.829c-0.933,1.264-2.767,2.181-5.295,2.181c-3.738,0-6.012-1.836-6.012-4.948
						c0-3.113,2.273-4.948,6.012-4.948c2.288,0,3.911,0.864,4.842,1.77l-1.662,1.21c-0.813-0.797-1.755-1.17-3.165-1.17
						c-2.436,0-3.858,1.065-3.858,3.139c0,2.075,1.463,3.139,3.937,3.139c1.396,0,2.54-0.306,3.206-1.103v-0.905h-3.513v-1.729
						h5.508V135.829z"/>
					<path style="fill:#000B29;" d="M157.294,128.406v9.311h-1.861l-6.678-6.73v6.73h-2.062v-9.311h2.261l6.278,6.385v-6.385
						H157.294z"/>
					<path style="fill:#000B29;" d="M177.312,135.748h-5.626l-0.998,1.969h-2.276l4.935-9.311h2.328l4.935,9.311h-2.302
						L177.312,135.748z M176.42,134.019l-1.928-3.791l-1.928,3.791H176.42z"/>
					<path style="fill:#000B29;" d="M200.935,130.242h-4.07v7.476h-2.127v-7.476h-4.045v-1.836h10.242V130.242z"/>
					<path style="fill:#000B29;" d="M222.54,128.406v4.922c0,2.794-1.849,4.682-5.228,4.682c-3.379,0-5.228-1.888-5.228-4.682
						v-4.922h2.127v4.762c0,1.862,1.091,2.979,3.1,2.979c2.007,0,3.098-1.117,3.098-2.979v-4.762H222.54z"/>
					<path style="fill:#000B29;" d="M242.865,137.717l-2.674-3.165h-3.367v3.165h-2.115v-9.311h6.426c2.273,0,3.99,1.051,3.99,3.073
						c0,1.583-1.052,2.567-2.594,2.927l2.873,3.312H242.865z M241.016,132.795c1.117,0,1.94-0.266,1.94-1.303
						s-0.823-1.303-1.94-1.303h-4.204v2.607H241.016z"/>
					<path style="fill:#000B29;" d="M266.543,135.934v1.783h-9.592v-9.311h9.458v1.783h-7.343v1.915h6.132v1.783h-6.132v2.048
						H266.543z"/>
					<path style="fill:#000B29;" d="M301.636,134.897c0,1.836-1.743,3.113-5.043,3.113c-2.353,0-4.269-0.665-5.693-1.875l1.225-1.45
						c1.144,1.05,2.619,1.542,4.523,1.542c1.887,0,2.846-0.359,2.846-1.13c0-0.772-0.959-0.984-3.1-1.171
						c-2.659-0.226-5.134-0.811-5.134-2.807c0-1.941,2.074-3.006,4.949-3.006c2.034,0,3.789,0.506,4.974,1.423l-1.17,1.477
						c-1.024-0.785-2.288-1.104-3.803-1.117c-1.264-0.013-2.808,0.212-2.808,1.064c0,0.798,1.331,0.879,3.18,1.025
						C299.548,132.223,301.636,132.849,301.636,134.897z"/>
					<path style="fill:#000B29;" d="M328.213,128.406l-3.405,9.311h-2.168l-2.446-7.023l-2.475,7.023h-2.141l-3.405-9.311h2.235
						l2.288,6.891l2.487-6.891h2.062l2.473,6.891l2.302-6.891H328.213z"/>
					<path style="fill:#000B29;" d="M339.505,137.717v-9.311h2.129v9.311H339.505z"/>
					<path style="fill:#000B29;" d="M366.446,128.406v9.311h-2.129v-6.478l-4.084,4.988h-0.106l-4.084-4.988v6.478h-2.062v-9.311
						h2.316l3.935,4.922l3.937-4.922H366.446z"/>
					<path style="fill:#000B29;" d="M402.204,134.897c0,1.836-1.743,3.113-5.043,3.113c-2.353,0-4.269-0.665-5.693-1.875l1.225-1.45
						c1.144,1.05,2.619,1.542,4.523,1.542c1.887,0,2.846-0.359,2.846-1.13c0-0.772-0.959-0.984-3.1-1.171
						c-2.659-0.226-5.134-0.811-5.134-2.807c0-1.941,2.074-3.006,4.949-3.006c2.034,0,3.789,0.506,4.974,1.423l-1.17,1.477
						c-1.024-0.785-2.288-1.104-3.803-1.117c-1.264-0.013-2.808,0.212-2.808,1.064c0,0.798,1.331,0.879,3.18,1.025
						C400.115,132.223,402.204,132.849,402.204,134.897z"/>
					<path style="fill:#000B29;" d="M424.138,131.559c0,2.061-1.595,3.152-3.99,3.152h-4.242v3.006h-2.129v-9.311h6.371
						C422.543,128.406,424.138,129.523,424.138,131.559z M421.97,131.572c0-1.065-0.798-1.384-1.995-1.384h-4.07v2.766h4.07
						C421.172,132.955,421.97,132.636,421.97,131.572z"/>
					<path style="fill:#000B29;" d="M443.307,135.748h-5.626l-0.998,1.969h-2.276l4.935-9.311h2.328l4.935,9.311h-2.302
						L443.307,135.748z M442.415,134.019l-1.928-3.791l-1.928,3.791H442.415z"/>
					<path style="fill:#000B29;" d="M467.596,134.897c0,1.836-1.743,3.113-5.043,3.113c-2.353,0-4.269-0.665-5.693-1.875l1.225-1.45
						c1.144,1.05,2.619,1.542,4.523,1.542c1.887,0,2.846-0.359,2.846-1.13c0-0.772-0.959-0.984-3.1-1.171
						c-2.659-0.226-5.134-0.811-5.134-2.807c0-1.941,2.074-3.006,4.949-3.006c2.034,0,3.789,0.506,4.974,1.423l-1.17,1.477
						c-1.024-0.785-2.288-1.104-3.803-1.117c-1.264-0.013-2.808,0.212-2.808,1.064c0,0.798,1.331,0.879,3.18,1.025
						C465.508,132.223,467.596,132.849,467.596,134.897z"/>
				</g>
			</g>
			<linearGradient id="SVGID_1_" gradientUnits="userSpaceOnUse" x1="277.5117" y1="63.5899" x2="277.5117" y2="-1.818989e-12">
				<stop  offset="0" style="stop-color:#000B29"/>
				<stop  offset="0.0254" style="stop-color:#04102E"/>
				<stop  offset="0.2332" style="stop-color:#1E3853"/>
				<stop  offset="0.3986" style="stop-color:#2F506B"/>
				<stop  offset="0.5" style="stop-color:#355973"/>
				<stop  offset="0.6503" style="stop-color:#6183A0"/>
				<stop  offset="0.8032" style="stop-color:#88A8C8"/>
				<stop  offset="0.9252" style="stop-color:#9FBFE0"/>
				<stop  offset="1" style="stop-color:#A8C7E9"/>
			</linearGradient>
			<path style="fill:url(#SVGID_1_);" d="M375.727,39.313c0.019-0.427-0.294-0.677-0.815-0.831c0.544-0.111,0.633-0.894,0.03-1.259
				c-0.384-0.233-1.412-0.7-2.517-1.014c-0.508-0.144-2.132-0.534-2.132-0.534s0.787-0.452,0.489-1.135
				c-0.084-0.191-0.521-0.16-1.189-0.362c-1.249-0.376-0.706-0.27-2.491-0.689c-1.919-0.449-2.143-0.602-6.036,2.128
				c-0.564,0.396-4.194,0.691-6.106,0.651c-0.405,0.025-0.814,0.035-1.225,0.034c-1.681-0.002-3.361-0.238-5.043-0.25
				c-2.184-0.016-4.274-0.439-6.399-0.928c-3.617-0.831-7.173-2.161-10.944-2.075c-1.894,0.043-3.779,0.473-5.666,0.731
				c-0.409,0.055-0.818,0.171-1.226,0.169c-4.655-0.012-9.308-0.035-13.962-0.076c-0.467-0.005-0.999-0.024-1.389-0.24
				c-3.275-1.81-6.804-2.482-10.503-2.409c-2.039,0.041-4.077,0.136-6.116,0.186c-0.336,0.008-0.696-0.033-1.011-0.146
				c-1.311-0.473-2.574-1.219-3.922-1.425c-2.417-0.369-3.064-2.14-3.158-4.235c-0.107-2.377,0.178-4.77,0.309-7.155
				c0.013-0.237,0.145-0.47,0.234-0.699c0.312-0.812,0.883-1.617,0.899-2.434c0.059-2.958-0.036-5.921-0.132-8.88
				c-0.093-2.892-1.881-4.587-4.334-5.657c-1.267-0.552-2.553-0.782-3.859-0.78c-1.306-0.003-2.592,0.228-3.859,0.78
				c-2.453,1.07-4.24,2.765-4.335,5.657c-0.096,2.959-0.19,5.922-0.131,8.88c0.016,0.817,0.587,1.622,0.899,2.434
				c0.088,0.23,0.219,0.462,0.233,0.699c0.132,2.385,0.416,4.779,0.31,7.155c-0.094,2.095-0.742,3.866-3.158,4.235
				c-1.348,0.206-2.611,0.952-3.922,1.425c-0.316,0.113-0.675,0.154-1.012,0.146c-2.039-0.05-4.077-0.145-6.115-0.186
				c-3.699-0.074-7.228,0.599-10.504,2.409c-0.389,0.216-0.921,0.236-1.388,0.24c-4.654,0.041-9.307,0.065-13.962,0.076
				c-0.409,0.002-0.817-0.114-1.226-0.169c-1.888-0.258-3.773-0.688-5.667-0.731c-3.771-0.086-7.325,1.243-10.944,2.075
				c-2.125,0.489-4.214,0.912-6.398,0.928c-1.681,0.012-3.362,0.248-5.043,0.25c-0.411,0.001-0.82-0.009-1.226-0.034
				c-1.911,0.04-5.541-0.255-6.105-0.651c-3.894-2.731-4.117-2.577-6.036-2.128c-1.786,0.419-1.242,0.312-2.491,0.689
				c-0.667,0.202-1.104,0.17-1.189,0.362c-0.299,0.684,0.489,1.135,0.489,1.135s-1.624,0.39-2.132,0.534
				c-1.106,0.314-2.134,0.781-2.517,1.014c-0.602,0.364-0.514,1.147,0.03,1.259c-0.522,0.154-0.835,0.404-0.815,0.831
				c0.017,0.361,0.412,0.525,0.412,0.525s-0.232,0.236-0.246,0.427c-0.031,0.443,0.336,0.792,0.769,0.815
				c0.374,0.02,1.179,0.002,1.179,0.002s-0.262,0.071-0.199,0.387c0.113,0.559,1.661,0.68,2.367,0.802
				c1.015,0.174,2.837,0.309,3.866,0.3c0.861-0.008,0.841,0.296,2.441,0.672c1.13,0.267,2.597,0.366,3.819-0.057
				c2.038-0.706,2.075-0.589,4.133-0.641c1.244-0.03,2.224-0.009,2.224-0.009c4.085,0.232,8.166,0.498,12.249,0.756
				c3.477,0.218,6.929-0.047,10.372-0.535c0.874-0.123,1.769-0.125,2.653-0.118c0.756,0.007,1.511,0.117,2.267,0.162
				c0.755,0.044,1.539-0.054,2.263,0.112c3.408,0.787,6.801,1.64,10.198,2.476c2.119,0.522,4.249,0.808,6.43,0.43
				c1.724-0.297,3.447-0.612,5.18-0.84c1.45-0.19,2.895-0.202,3.861,1.211c1.185,1.736,1.969,3.648,2.304,5.713
				c0.12,0.729,0.217,3.916,0.306,5.663c-15.611,0.997-28.77,3.169-37.193,6.023c15.483-2.119,35.143-3.389,56.559-3.389
				c21.413,0,41.075,1.27,56.558,3.389c-8.424-2.855-21.584-5.027-37.195-6.023c0.088-1.748,0.187-4.934,0.306-5.663
				c0.336-2.065,1.119-3.978,2.305-5.713c0.966-1.413,2.412-1.401,3.861-1.211c1.733,0.228,3.455,0.542,5.179,0.84
				c2.181,0.378,4.312,0.091,6.431-0.43c3.397-0.836,6.79-1.689,10.198-2.476c0.724-0.166,1.508-0.068,2.263-0.112
				c0.757-0.045,1.511-0.155,2.267-0.162c0.885-0.007,1.78-0.006,2.653,0.118c3.443,0.488,6.895,0.753,10.372,0.535
				c4.083-0.258,8.164-0.524,12.248-0.756c0,0,0.979-0.022,2.225,0.009c2.058,0.052,2.095-0.065,4.134,0.641
				c1.221,0.423,2.688,0.324,3.819,0.057c1.599-0.376,1.58-0.68,2.441-0.672c1.029,0.009,2.852-0.126,3.866-0.3
				c0.706-0.122,2.254-0.243,2.367-0.802c0.063-0.315-0.2-0.387-0.2-0.387s0.807,0.018,1.18-0.002
				c0.433-0.023,0.8-0.372,0.768-0.815c-0.013-0.191-0.245-0.427-0.245-0.427S375.709,39.674,375.727,39.313z"/>
		</g>
		<path style="fill:#000B29;" d="M479.352,129.141h-1.502v-1.028h4.095v1.028h-1.47v3.431h-1.123V129.141z M482.325,128.113h1.044
			l1.407,2.64l1.391-2.64h1.044v4.459h-1.107v-2.688l-1.091,2.34h-0.458l-1.138-2.34v2.688h-1.091V128.113z"/>
	</g>
</g>
</svg>
