<?xml version="1.0" encoding="iso-8859-1"?>
<!-- Generator: Adobe Illustrator 29.7.1, SVG Export Plug-In . SVG Version: 9.03 Build 0)  -->
<svg version="1.1" xmlns="http://www.w3.org/2000/svg" xmlns:xlink="http://www.w3.org/1999/xlink" x="0px" y="0px"
	 viewBox="0 0 447.181 92.283" style="enable-background:new 0 0 447.181 92.283;" xml:space="preserve">
<g id="Layer_2">
</g>
<g id="Layer_1">
	<g>
		<g>
			<g>
				<path style="fill:#000B29;" d="M168.59,86.39c0,3.395-3.793,5.894-10.392,5.894c-4.427,0-8.682-1.263-11.836-3.789l1.707-1.657
					c2.951,2.367,6.222,3.393,10.275,3.393c4.892,0,7.757-1.394,7.757-3.683c0-2.236-2.982-2.79-8.451-3.211
					c-5.414-0.421-10.594-1.498-10.594-5.13c0-3.473,4.803-5.446,10.218-5.446c4.398,0,8.017,1.394,10.36,3.288l-1.909,1.474
					c-1.969-1.764-4.949-2.684-8.337-2.71c-3.616-0.027-7.843,0.895-7.843,3.315c0,2.289,3.822,2.763,8.596,3.104
					C164.306,81.681,168.59,82.759,168.59,86.39z"/>
				<path style="fill:#000B29;" d="M208.519,79.155c0,3.683-3.097,5.841-7.757,5.841h-11.114v6.736h-2.432V73.314h13.545
					C205.422,73.314,208.519,75.472,208.519,79.155z M206.03,79.155c0-2.579-2.143-3.789-5.443-3.789h-10.94v7.578h10.94
					C203.886,82.944,206.03,81.733,206.03,79.155z"/>
				<path style="fill:#000B29;" d="M241.24,86.785h-13.66l-2.954,4.946h-2.691l11.142-18.417h2.723l11.142,18.417h-2.751
					L241.24,86.785z M240.053,84.784l-5.643-9.446l-5.645,9.446H240.053z"/>
				<path style="fill:#000B29;" d="M284.294,86.39c0,3.395-3.793,5.894-10.392,5.894c-4.427,0-8.682-1.263-11.836-3.789l1.707-1.657
					c2.951,2.367,6.222,3.393,10.275,3.393c4.892,0,7.757-1.394,7.757-3.683c0-2.236-2.983-2.79-8.451-3.211
					c-5.414-0.421-10.594-1.498-10.594-5.13c0-3.473,4.803-5.446,10.218-5.446c4.398,0,8.017,1.394,10.36,3.288l-1.909,1.474
					c-1.969-1.764-4.949-2.684-8.337-2.71c-3.616-0.027-7.843,0.895-7.843,3.315c0,2.289,3.822,2.763,8.596,3.104
					C280.01,81.681,284.294,82.759,284.294,86.39z"/>
			</g>
			<path style="fill:#000B29;" d="M154.283,36.782c-2.336,0.124-4.661,0.252-6.955,0.39V52.49h6.955V36.782z"/>
			<path style="fill:#000B29;" d="M80.285,43.796c-2.875,0.417-5.69,0.847-8.438,1.288l3.794,8.267h0.143L80.285,43.796z"/>
			<path style="fill:#000B29;" d="M116.854,39.49c-4.237,0.395-8.392,0.812-12.444,1.254l5.936,12.607h0.146L116.854,39.49z"/>
			<path style="fill:#000B29;" d="M177.078,35.816V52.49h34.132v-5.665h-27.176V35.621
				C181.702,35.681,179.376,35.743,177.078,35.816z"/>
			<path style="fill:#000B29;" d="M286.126,53.351c6.955,0,15.132-1.577,20.078-3.944V38.81c-2.215-0.186-4.481-0.358-6.741-0.532
				v7.041c-3.513,1.147-8.962,1.936-13.337,1.936c-10.763,0-19.071-4.26-22.984-11.101c-2.572-0.104-5.192-0.19-7.806-0.277
				C259.452,46.557,270.867,53.351,286.126,53.351z"/>
			<path style="fill:#000B29;" d="M367.713,46.586v5.904h6.884v-4.616C372.352,47.437,370.066,47.006,367.713,46.586z"/>
			<path style="fill:#000B29;" d="M227.19,52.49h6.955V35.365c-2.313-0.036-4.612-0.076-6.955-0.099V52.49z"/>
			<path style="fill:#000B29;" d="M327.916,52.49h6.955V41.732c-2.278-0.275-4.614-0.537-6.955-0.798V52.49z"/>
			
				<radialGradient id="SVGID_1_" cx="218.4594" cy="31.2435" r="362.9398" fx="218.2485" fy="-27.359" gradientTransform="matrix(1 0 0 0.1115 0 27.7591)" gradientUnits="userSpaceOnUse">
				<stop  offset="0" style="stop-color:#A8C7E9"/>
				<stop  offset="0.1503" style="stop-color:#7C9DBC"/>
				<stop  offset="0.3032" style="stop-color:#557894"/>
				<stop  offset="0.4252" style="stop-color:#3E617C"/>
				<stop  offset="0.5" style="stop-color:#355973"/>
				<stop  offset="0.5254" style="stop-color:#31546E"/>
				<stop  offset="0.7332" style="stop-color:#172C49"/>
				<stop  offset="0.8986" style="stop-color:#061431"/>
				<stop  offset="1" style="stop-color:#000B29"/>
			</radialGradient>
			<path style="fill:url(#SVGID_1_);" d="M404.699,6.526h-19.002V0.861h44.96v5.665h-19.074v45.965h-0.257
				c-2.112-0.724-4.328-1.428-6.627-2.119V6.526z M288.802,29.327v3.463c5.875,0.398,11.683,0.843,17.403,1.336v-4.798h-0.027
				v-0.001H288.802z M119.099,34.601l15.488-33.741h-7.458l-9.898,22.23c-1.965,4.437-3.78,8.712-5.214,12.193
				C114.361,35.048,116.72,34.82,119.099,34.601z M82.641,38.792l5.336-11.327c1.864-4.016,3.656-8.175,5.089-11.331
				c1.436,3.155,3.228,7.315,5.092,11.331l4.167,8.848c2.152-0.241,4.315-0.478,6.502-0.706c-1.554-3.398-3.545-7.518-5.506-11.799
				L93.211,1.577h-0.288l-10.112,22.23c-2.723,5.952-5.52,11.616-7.098,15.418c-1.504-3.802-4.087-9.824-6.813-16.134l-9.895-22.23
				h-7.458l18.3,39.869C74.005,40.052,78.273,39.406,82.641,38.792z M154.283,32.024V0.861h-6.955v31.574
				C149.636,32.29,151.955,32.154,154.283,32.024z M19.002,52.491h0.328c2.089-0.716,4.283-1.414,6.556-2.098V6.526H44.96V0.861H0
				v5.665h19.002V52.491z M234.145,30.501V0.861h-6.955v29.544C229.509,30.429,231.828,30.462,234.145,30.501z M261.209,31.289
				c-0.347-1.466-0.538-3.004-0.538-4.614c0-12.19,10.397-20.509,25.601-20.509c8.245,0,14.196,1.936,18.785,3.944V3.657
				C301.473,2.079,295.522,0,286.415,0c-19.433,0-32.77,10.828-32.77,26.676c0,1.499,0.154,2.937,0.385,4.341
				C256.427,31.101,258.822,31.19,261.209,31.289z M184.033,30.78V0.861h-6.955v30.14C179.393,30.921,181.71,30.846,184.033,30.78z
				 M334.871,37.074v-7.889h32.842v12.717c2.335,0.413,4.632,0.836,6.884,1.269V0.861h-6.884v22.66h-32.842V0.861h-6.955v35.405
				C330.255,36.527,332.575,36.796,334.871,37.074z"/>
		</g>
		<path style="fill:#000B29;" d="M439.323,1.888h-1.502V0.861h4.095v1.028h-1.47v3.431h-1.123V1.888z M442.295,0.861h1.044
			l1.407,2.64l1.391-2.64h1.044v4.459h-1.107V2.631l-1.091,2.34h-0.458l-1.138-2.34v2.688h-1.091V0.861z"/>
	</g>
</g>
</svg>
